<?xml version="1.0" standalone="no"?><!DOCTYPE svg PUBLIC "-//W3C//DTD SVG 1.1//EN" "http://www.w3.org/Graphics/SVG/1.1/DTD/svg11.dtd"><svg t="1701756999342" class="icon" viewBox="0 0 1024 1024" version="1.1" xmlns="http://www.w3.org/2000/svg" p-id="9126" xmlns:xlink="http://www.w3.org/1999/xlink" width="200" height="200"><path d="M501.9 879.5L135.8 709.4c-19.5-9.1-19.5-35.2 0-44.3L501.9 495c7.4-3.4 16.1-3.4 23.5 0l362.9 170.1c19.4 9.1 19.4 35.1 0 44.2L525.4 879.5c-7.4 3.5-16.1 3.5-23.5 0z" fill="#2c2c2c" opacity=".5" p-id="9127"></path><path d="M501.9 679.2L135.8 509.1c-19.5-9.1-19.5-35.2 0-44.3l366.1-170.1c7.4-3.4 16.1-3.4 23.5 0l362.9 170.1c19.4 9.1 19.4 35.1 0 44.2L525.4 679.2c-7.4 3.4-16.1 3.4-23.5 0z" fill="#2c2c2c" p-id="9128"></path><path d="M501.9 528.9L135.8 358.8c-19.5-9.1-19.5-35.2 0-44.3l366.1-170.1c7.4-3.4 16.1-3.4 23.5 0l362.9 170.1c19.4 9.1 19.4 35.1 0 44.2L525.4 528.9c-7.4 3.5-16.1 3.5-23.5 0z" fill="#2c2c2c" p-id="9129"></path></svg>