<?xml version="1.0" standalone="no"?><!DOCTYPE svg PUBLIC "-//W3C//DTD SVG 1.1//EN" "http://www.w3.org/Graphics/SVG/1.1/DTD/svg11.dtd"><svg t="1701220895431" class="icon" viewBox="0 0 1024 1024" version="1.1" xmlns="http://www.w3.org/2000/svg" p-id="1830" xmlns:xlink="http://www.w3.org/1999/xlink" width="200" height="200"><path d="M764.620531 508.302795c7.693216 0 11.538801-6.099928 11.538801-13.794168 0-7.693216-5.438872-12.290931-13.133112-12.290931h-23.168675l32.936133-46.910402c3.847631-7.693216 1.660826-15.33322-6.009877-19.984147-5.624091-3.409656-14.404058-2.12029-19.23304 5.348821-6.374174 9.859555-33.868365 50.848085-33.868366 50.848085s-26.583448-37.665855-33.025161-47.091528c-5.092995-7.451716-14.012132-12.279674-22.148439-6.852058-8.67559 5.78782-7.451716 16.671705-6.099928 18.391882 1.351787 1.720178 34.438347 46.249347 34.438347 46.249347h-26.085099c-5.01113-0.073678-11.539824 4.246721-11.539824 13.042038 0 7.693216 6.15314 13.178137 11.539824 13.042037h36.872793v19.051915h-36.872793c-3.845585 0-11.539824 5.350868-11.539824 13.044084s7.694239 12.289907 11.539824 12.289908h36.872793v41.080627c0.563842 8.637728 6.191003 15.387455 13.884218 15.387455 11.539824 0 17.730826-3.846608 17.730827-15.387455v-40.989553l35.370578 0.751107c7.693216 0 11.538801-7.471159 11.538801-13.044084 0-5.696746-3.845585-13.042037-11.538801-13.042038h-35.370578V508.299725h35.370578z" p-id="1831" fill="#ffffff"></path><path d="M894.572232 63.83998H129.423675c-36.229133 0-65.583694 29.334095-65.583695 65.584718v765.150604c0 36.208667 29.355585 65.583694 65.583695 65.583694h765.14958c36.219923 0 65.586764-29.375028 65.586765-65.583694V129.424698c-0.001023-36.250622-29.367865-65.584718-65.587788-65.584718zM732.004693 756.048295c0 31.371498-22.537296 52.470025-48.482201 52.470026H280.416598c-33.119305 0-57.789171-22.418592-57.789171-54.214763V280.989649c0-42.311665 29.30135-65.392336 61.545728-65.392336h386.28581c46.64025 0 61.545728 31.823799 61.545728 63.890123v38.646181H690.623213v-28.037566s0.751107-13.042037-6.942109-20.736277c-7.693216-11.540847-19.984147-10.037611-19.984147-10.03761H290.935162s-12.290931-0.751107-19.984147 10.78974c-7.692193 7.693216-6.941086 19.984147-6.941086 19.984147v443.923532c0 9.312086 1.665942 17.771759 7.084349 23.454178 4.339842 4.550643 11.354606 7.319709 19.841907 7.319709h372.761796c6.768147 0 13.951757-2.145873 18.325367-5.852288 6.493901-5.504364 8.600889-11.44568 8.600889-21.916149h-0.001024v-23.528879h41.382503c-0.001023-0.001023-0.001023 16.256242-0.001023 42.552141zM304.639279 516.294816v-38.947034h227.431849v38.947034H304.639279z m200.505593 69.420069v38.946011H304.639279v-38.946011h200.505593zM304.639279 404.081105v-38.947034h257.363555v38.947034H304.639279z m561.663096 130.966821L727.915561 681.220053c-3.845585 3.847631-7.694239 7.693216-15.387455 7.693216-3.845585 0-11.539824 0-15.387455-7.693216L558.752814 535.047926c-3.845585-3.845585-3.845585-11.539824 0-19.232017 3.845585-7.693216 11.538801-7.693216 15.387455-7.693216h50.006927V381.182582c0-19.23304 15.385409-34.619472 34.618449-34.619472h107.524922c19.234063 0 34.619472 15.387455 34.619472 34.619472v126.939088h50.006927c3.846608 0 11.539824 3.846608 15.385409 7.693216 3.847631 7.693216 0 15.386432 0 19.23304z" p-id="1832" fill="#ffffff"></path></svg>