<?xml version="1.0" standalone="no"?><!DOCTYPE svg PUBLIC "-//W3C//DTD SVG 1.1//EN" "http://www.w3.org/Graphics/SVG/1.1/DTD/svg11.dtd"><svg t="1701220914622" class="icon" viewBox="0 0 1163 1024" version="1.1" xmlns="http://www.w3.org/2000/svg" p-id="2169" xmlns:xlink="http://www.w3.org/1999/xlink" width="227.1484375" height="200"><path d="M1096.610909 950.178909h-38.493091v-593.221818c0-33.396364-28.253091-61.626182-64.232727-61.626182h-146.362182v-43.659636c0-7.703273 0-28.253091-112.989091-133.538909C618.984727 10.24 593.291636 10.24 583.028364 10.24c-10.286545 0-35.956364 0-156.648728 105.309091-118.132364 105.285818-118.132364 123.252364-118.132363 133.515636v43.659637h-141.265455c-35.933091 0-64.186182 28.253091-64.186182 61.649454v595.781818H46.312727c-15.406545 0-28.253091 12.823273-28.253091 28.229819s12.846545 28.253091 28.253091 28.25309l1052.881455-2.56c15.406545 0 28.253091-12.846545 28.253091-28.25309 0-15.406545-15.406545-25.669818-30.813091-25.669819z m-105.262545-598.341818c5.12 0 7.68 2.56 7.68 5.12v593.221818h-154.065455v-598.341818h146.385455zM462.336 159.185455C526.522182 102.725818 565.038545 74.472727 580.421818 69.352727c35.956364 15.406545 187.485091 154.088727 210.594909 190.045091v690.804364h-48.802909V752.407273c0-61.626182-51.362909-110.429091-115.549091-110.429091h-95.022545c-64.209455 0-115.572364 48.802909-115.572364 110.429091v197.748363h-56.482909V259.374545c10.263273-12.846545 48.779636-53.922909 102.725818-100.165818z m223.418182 790.970181h-215.738182V749.847273c0-30.813091 28.253091-53.922909 61.649455-53.922909h95.022545c33.373091 0 61.626182 23.109818 61.626182 53.922909v200.308363h-2.56zM156.718545 356.957091c0-2.56 2.56-5.12 7.726546-5.12h138.658909v598.341818h-148.945455v-593.221818h2.56z m287.65091 102.725818h249.088c15.406545 0 28.229818-12.846545 28.229818-28.253091 0-15.406545-12.823273-28.253091-28.229818-28.253091H444.346182c-15.406545 0-28.253091 12.846545-28.253091 28.253091 2.56 15.406545 12.846545 28.253091 28.253091 28.253091z m0 105.285818h249.088c15.406545 0 28.229818-12.846545 28.229818-28.253091 0-15.406545-12.823273-28.253091-28.229818-28.253091H444.346182c-15.406545 0-28.253091 12.846545-28.253091 28.253091 0 15.406545 12.846545 28.253091 28.253091 28.253091z m0-213.154909h249.088c15.406545 0 28.229818-12.823273 28.229818-28.253091 0-15.406545-12.823273-28.229818-28.229818-28.229818H444.346182c-15.406545 0-28.253091 12.823273-28.253091 28.229818 0 15.429818 12.846545 28.253091 28.253091 28.253091z" fill="#FFFFFF" p-id="2170"></path></svg>