<?xml version="1.0" standalone="no"?><!DOCTYPE svg PUBLIC "-//W3C//DTD SVG 1.1//EN" "http://www.w3.org/Graphics/SVG/1.1/DTD/svg11.dtd"><svg t="1701674884229" class="icon" viewBox="0 0 1024 1024" version="1.1" xmlns="http://www.w3.org/2000/svg" p-id="6187" xmlns:xlink="http://www.w3.org/1999/xlink" width="200" height="200"><path d="M758.4 355.2H624c-12.4 0-22.4 10-22.4 22.4 0 12.4 10 22.4 22.4 22.4h134.4c12.4 0 22.4-10 22.4-22.4 0-12.4-10-22.4-22.4-22.4zM758.4 489.6H624c-12.4 0-22.4 10-22.4 22.4 0 12.4 10 22.4 22.4 22.4h134.4c12.4 0 22.4-10 22.4-22.4 0-12.4-10-22.4-22.4-22.4zM265.6 758.4h492.8c12.4 0 22.4-10 22.4-22.4 0-12.4-10-22.4-22.4-22.4H265.6c-12.4 0-22.4 10-22.4 22.4 0 12.4 10 22.4 22.4 22.4zM286.2 588l42.2-98.4h143.3l42.2 98.4c3.6 8.5 11.9 13.6 20.6 13.6 3 0 5.9-0.6 8.8-1.8 11.4-4.9 16.6-18 11.8-29.4L420.6 256.8c-3.5-8.2-11.6-13.6-20.6-13.6s-17.1 5.3-20.6 13.6L245 570.4c-4.9 11.4 0.4 24.5 11.8 29.4 11.3 4.9 24.5-0.4 29.4-11.8zM400 322.5l52.4 122.3H347.6L400 322.5z" fill="#ffffff" p-id="6188"></path><path d="M937.6 220.8c12.4 0 22.4-10 22.4-22.4v-89.6c0-24.7-20.1-44.8-44.8-44.8H108.8C84.1 64 64 84.1 64 108.8v806.4c0 24.7 20.1 44.8 44.8 44.8h806.4c24.7 0 44.8-20.1 44.8-44.8v-560c0-12.4-10-22.4-22.4-22.4-12.4 0-22.4 10-22.4 22.4v560H108.8V108.8h806.4v89.6c0 12.4 10 22.4 22.4 22.4z" fill="#ffffff" p-id="6189"></path></svg>