<?xml version="1.0" standalone="no"?><!DOCTYPE svg PUBLIC "-//W3C//DTD SVG 1.1//EN" "http://www.w3.org/Graphics/SVG/1.1/DTD/svg11.dtd"><svg t="1701220859053" class="icon" viewBox="0 0 1024 1024" version="1.1" xmlns="http://www.w3.org/2000/svg" p-id="1658" xmlns:xlink="http://www.w3.org/1999/xlink" width="200" height="200"><path d="M884.352 913.664H139.648a24 24 0 0 1-24-24V134.336c0-13.248 10.752-24 24-24h744.704c13.248 0 24 10.752 24 24v755.392a24 24 0 0 1-24 23.936z m-720.704-48h696.704V158.336H163.648v707.328z" p-id="1659" fill="#ffffff"></path><path d="M595.456 479.872l23.168-102.144a19276.864 19276.864 0 0 0 124.736-176c12.928-21.248 37.504-36.672 57.088-32.768 21.824 4.352 39.616 34.432 26.496 59.648-11.392 22.016-122.816 180.608-135.424 198.656l-4.928 4.288-91.136 48.32z m47.616-88.256l-7.616 35.328 35.072-18.624c35.52-50.56 122.944-175.872 131.648-192.704 2.688-5.312 0.448-16.256-9.152-17.152-9.024-0.832-18.368 5.568-25.728 17.728-5.952 9.472-106.112 149.952-124.224 175.424z" p-id="1660" fill="#ffffff"></path><path d="M791.68 254.784l-9.088 10.624-46.4-35.584 9.152-10.624z" p-id="1661" fill="#ffffff"></path><path d="M783.232 705.024H241.28a24 24 0 0 1 0-48h541.952a24 24 0 0 1 0 48zM783.232 609.024H241.28a24 24 0 0 1 0-48h541.952a24 24 0 0 1 0 48zM783.232 814.976H241.28a24 24 0 0 1 0-48h541.952a24 24 0 0 1 0 48z" p-id="1662" fill="#ffffff"></path><path d="M282.88 315.904l-0.128-9.6c15.296-13.824 29.184-24.192 41.728-31.104 4.224 6.528 6.4 12.544 6.464 18.176a36.672 36.672 0 0 1-1.728 10.944c-1.28 4.096-5.504 13.824-12.736 29.312a445.12 445.12 0 0 0-20.352 51.072c-5.248 16.064-7.424 25.536-6.784 28.416a53.44 53.44 0 0 1 1.792 10.496c0 2.112-0.576 3.328-1.856 3.584a26.688 26.688 0 0 1-12.544-5.056 16.896 16.896 0 0 1-8.384-14.72c-0.128-10.176 3.776-25.536 11.712-45.952 7.936-20.416 18.048-40.64 30.4-60.608-8.768 3.584-17.92 8.64-27.584 15.04zM427.776 289.728a15.104 15.104 0 0 1 8.256 8.128c1.664 3.712 2.56 9.088 2.624 16.128 0.256 16.96-4.032 34.432-12.8 52.288a130.048 130.048 0 0 1-32.256 43.456c-12.8 11.008-24 16.576-33.792 16.704a28.544 28.544 0 0 1-23.04-11.456 46.976 46.976 0 0 1-9.92-30.272c-0.256-14.144 4.352-29.632 13.888-46.336s21.376-30.528 35.584-41.6c14.208-11.072 26.688-16.704 37.376-16.832 8.64-0.192 13.376 3.072 14.08 9.792z m-26.496 23.424l3.968-8.704c-16.32 7.616-30.784 20.992-43.392 40.128-12.608 19.072-18.816 35.392-18.624 48.768 0.128 9.152 3.456 13.568 10.048 13.44 7.616-0.064 17.92-5.504 30.72-16.448a140.8 140.8 0 0 0 31.424-37.952c8.128-14.464 12.16-27.584 11.968-39.424-0.128-7.488-2.88-11.2-8.32-11.072-5.12 0.064-11.072 3.84-17.792 11.264zM532.8 288.192a16 16 0 0 1 8.256 8.128 46.08 46.08 0 0 1 2.688 16.128c0.192 16.96-4.096 34.432-12.864 52.352a131.328 131.328 0 0 1-32.256 43.392c-12.8 10.944-24.064 16.576-33.792 16.704a28.672 28.672 0 0 1-23.104-11.456 47.232 47.232 0 0 1-9.856-30.336c-0.256-14.144 4.352-29.568 13.824-46.272 9.472-16.704 21.376-30.528 35.584-41.664 14.208-11.072 26.688-16.64 37.376-16.832 8.704-0.128 13.376 3.136 14.144 9.856z m-26.56 23.424l4.032-8.704c-16.448 7.616-30.912 20.928-43.456 40.064-12.608 19.136-18.816 35.392-18.56 48.832 0.128 9.088 3.456 13.568 9.984 13.504 7.68-0.128 17.856-5.632 30.656-16.512 12.8-10.88 23.296-23.552 31.488-37.952 8.192-14.464 12.16-27.584 12.032-39.424-0.064-7.488-2.88-11.2-8.384-11.136-5.12 0.064-10.944 3.84-17.792 11.328z" p-id="1663" fill="#ffffff"></path><path d="M511.36 438.912l1.792 15.936-236.416 26.048-1.728-15.936zM576.064 471.488l1.856 15.936-341.824 39.04-1.856-15.936z" p-id="1664" fill="#ffffff"></path></svg>